<svg width="3207" height="1536" viewBox="0 0 3207 1536" fill="none" xmlns="http://www.w3.org/2000/svg">
<g clip-path="url(#clip0_32_1926)">
<path d="M749.5 401C804.886 401 850 446.1 850 502C850 557.9 804.886 603 749.5 603C715.356 603 685.135 585.915 666.906 559.565C655.62 543.251 649 523.458 649 502C649 446.1 694.114 401 749.5 401Z" stroke="#024A71" stroke-width="68"/>
<path d="M527 720.5L662 588" stroke="#024A71" stroke-width="74" stroke-linecap="round"/>
<path d="M595.001 703.5C595.001 703.5 595.001 703.5 639.501 659.5L662.81 682.125C678.5 701 676.322 714.038 664 727.5C645.784 741.646 637.5 746.5 618.19 730.875L595.001 703.5Z" fill="#024A71"/>
<path d="M503 748.751C503 748.751 503 748.751 568 718.5L599.356 748.751C615.046 767.625 611.677 780.664 599.356 794.125C581.139 808.271 572.856 813.125 553.546 797.5L503 748.751Z" fill="#024A71"/>
<path d="M295.319 1153.53L206.976 1079.1L411 850L490 910.5L295.319 1153.53Z" fill="#024A71"/>
<path d="M214.007 1160.67C238.403 1181.22 274.764 1177.93 295.319 1153.53L206.976 1079.1C186.421 1103.49 189.612 1140.11 214.007 1160.67Z" fill="#024A71"/>
<path d="M685.151 216C881.841 216 1041 374.651 1041 570C1041 765.349 881.841 924 685.151 924C563.915 924 456.879 863.726 392.592 771.583C352.68 714.377 329.305 644.952 329.305 570C329.305 374.651 488.462 216 685.151 216Z" stroke="#024A71" stroke-width="72"/>
<path d="M1228 301H1395.5C1404.17 301 1411.33 303.833 1417 309.5C1423 314.833 1426 321.833 1426 330.5C1426 338.833 1423 345.667 1417 351C1411.33 356 1404.17 358.5 1395.5 358.5H1255.5L1260 350V447.5L1256 443.5H1373C1381.67 443.5 1388.83 446.333 1394.5 452C1400.5 457.333 1403.5 464.333 1403.5 473C1403.5 481.333 1400.5 488.167 1394.5 493.5C1388.83 498.5 1381.67 501 1373 501H1257.5L1260 497V598L1256 593.5H1395.5C1404.17 593.5 1411.33 596.5 1417 602.5C1423 608.167 1426 614.833 1426 622.5C1426 630.833 1423 637.667 1417 643C1411.33 648.333 1404.17 651 1395.5 651H1228C1219.33 651 1212 648.167 1206 642.5C1200.33 636.5 1197.5 629.167 1197.5 620.5V331.5C1197.5 322.833 1200.33 315.667 1206 310C1212 304 1219.33 301 1228 301ZM1586.63 378.5C1611.3 378.5 1629.97 383.667 1642.63 394C1655.63 404.333 1664.47 418.167 1669.13 435.5C1674.13 452.5 1676.63 471.5 1676.63 492.5V620.5C1676.63 629.167 1673.8 636.5 1668.13 642.5C1662.47 648.167 1655.3 651 1646.63 651C1637.97 651 1630.8 648.167 1625.13 642.5C1619.47 636.5 1616.63 629.167 1616.63 620.5V492.5C1616.63 481.5 1615.13 471.667 1612.13 463C1609.47 454 1604.47 446.833 1597.13 441.5C1589.8 436.167 1579.3 433.5 1565.63 433.5C1552.3 433.5 1540.97 436.167 1531.63 441.5C1522.63 446.833 1515.63 454 1510.63 463C1505.97 471.667 1503.63 481.5 1503.63 492.5V620.5C1503.63 629.167 1500.8 636.5 1495.13 642.5C1489.47 648.167 1482.3 651 1473.63 651C1464.97 651 1457.8 648.167 1452.13 642.5C1446.47 636.5 1443.63 629.167 1443.63 620.5V414C1443.63 405.333 1446.47 398.167 1452.13 392.5C1457.8 386.5 1464.97 383.5 1473.63 383.5C1482.3 383.5 1489.47 386.5 1495.13 392.5C1500.8 398.167 1503.63 405.333 1503.63 414V435.5L1496.13 434C1499.13 428.333 1503.47 422.333 1509.13 416C1514.8 409.333 1521.47 403.167 1529.13 397.5C1536.8 391.833 1545.47 387.333 1555.13 384C1564.8 380.333 1575.3 378.5 1586.63 378.5ZM1825.48 378.5C1844.48 378.5 1860.98 380.5 1874.98 384.5C1889.32 388.5 1900.32 394.167 1907.98 401.5C1915.98 408.5 1919.98 417 1919.98 427C1919.98 433.667 1917.98 440 1913.98 446C1909.98 451.667 1904.15 454.5 1896.48 454.5C1891.15 454.5 1886.65 453.833 1882.98 452.5C1879.65 450.833 1876.65 448.833 1873.98 446.5C1871.32 444.167 1868.15 442 1864.48 440C1861.15 438 1855.98 436.5 1848.98 435.5C1842.32 434.167 1837.32 433.5 1833.98 433.5C1816.98 433.5 1802.48 437.167 1790.48 444.5C1778.82 451.833 1769.82 461.833 1763.48 474.5C1757.15 486.833 1753.98 501.167 1753.98 517.5C1753.98 533.5 1757.15 547.833 1763.48 560.5C1770.15 572.833 1779.15 582.667 1790.48 590C1802.15 597.333 1815.48 601 1830.48 601C1838.82 601 1845.98 600.5 1851.98 599.5C1857.98 598.5 1862.98 597 1866.98 595C1871.65 592.333 1875.82 589.5 1879.48 586.5C1883.15 583.5 1888.65 582 1895.98 582C1904.65 582 1911.32 584.833 1915.98 590.5C1920.65 595.833 1922.98 602.5 1922.98 610.5C1922.98 618.833 1918.32 626.5 1908.98 633.5C1899.65 640.167 1887.32 645.667 1871.98 650C1856.98 654 1840.65 656 1822.98 656C1796.65 656 1773.82 650 1754.48 638C1735.15 625.667 1720.15 609 1709.48 588C1699.15 567 1693.98 543.5 1693.98 517.5C1693.98 490.167 1699.48 466.167 1710.48 445.5C1721.82 424.5 1737.32 408.167 1756.98 396.5C1776.98 384.5 1799.82 378.5 1825.48 378.5ZM2190.75 517.5C2190.75 544.833 2184.58 569 2172.25 590C2160.25 610.667 2143.92 626.833 2123.25 638.5C2102.92 650.167 2080.08 656 2054.75 656C2029.42 656 2006.42 650.167 1985.75 638.5C1965.42 626.833 1949.08 610.667 1936.75 590C1924.75 569 1918.75 544.833 1918.75 517.5C1918.75 490.167 1924.75 466.167 1936.75 445.5C1949.08 424.5 1965.42 408.167 1985.75 396.5C2006.42 384.5 2029.42 378.5 2054.75 378.5C2080.08 378.5 2102.92 384.5 2123.25 396.5C2143.92 408.167 2160.25 424.5 2172.25 445.5C2184.58 466.167 2190.75 490.167 2190.75 517.5ZM2130.75 517.5C2130.75 500.5 2127.25 485.833 2120.25 473.5C2113.58 460.833 2104.42 451 2092.75 444C2081.42 437 2068.75 433.5 2054.75 433.5C2040.75 433.5 2027.92 437 2016.25 444C2004.92 451 1995.75 460.833 1988.75 473.5C1982.08 485.833 1978.75 500.5 1978.75 517.5C1978.75 534.167 1982.08 548.833 1988.75 561.5C1995.75 573.833 2004.92 583.5 2016.25 590.5C2027.92 597.5 2040.75 601 2054.75 601C2068.75 601 2081.42 597.5 2092.75 590.5C2104.42 583.5 2113.58 573.833 2120.25 561.5C2127.25 548.833 2130.75 534.167 2130.75 517.5ZM2351.26 378.5C2375.93 378.5 2394.6 383.667 2407.26 394C2420.26 404.333 2429.1 418.167 2433.76 435.5C2438.76 452.5 2441.26 471.5 2441.26 492.5V620.5C2441.26 629.167 2438.43 636.5 2432.76 642.5C2427.1 648.167 2419.93 651 2411.26 651C2402.6 651 2395.43 648.167 2389.76 642.5C2384.1 636.5 2381.26 629.167 2381.26 620.5V492.5C2381.26 481.5 2379.76 471.667 2376.76 463C2374.1 454 2369.1 446.833 2361.76 441.5C2354.43 436.167 2343.93 433.5 2330.26 433.5C2316.93 433.5 2305.6 436.167 2296.26 441.5C2287.26 446.833 2280.26 454 2275.26 463C2270.6 471.667 2268.26 481.5 2268.26 492.5V620.5C2268.26 629.167 2265.43 636.5 2259.76 642.5C2254.1 648.167 2246.93 651 2238.26 651C2229.6 651 2222.43 648.167 2216.76 642.5C2211.1 636.5 2208.26 629.167 2208.26 620.5V414C2208.26 405.333 2211.1 398.167 2216.76 392.5C2222.43 386.5 2229.6 383.5 2238.26 383.5C2246.93 383.5 2254.1 386.5 2259.76 392.5C2265.43 398.167 2268.26 405.333 2268.26 414V435.5L2260.76 434C2263.76 428.333 2268.1 422.333 2273.76 416C2279.43 409.333 2286.1 403.167 2293.76 397.5C2301.43 391.833 2310.1 387.333 2319.76 384C2329.43 380.333 2339.93 378.5 2351.26 378.5ZM2474.11 388.5H2592.61C2600.61 388.5 2607.28 391.167 2612.61 396.5C2617.95 401.833 2620.61 408.5 2620.61 416.5C2620.61 424.167 2617.95 430.667 2612.61 436C2607.28 441 2600.61 443.5 2592.61 443.5H2474.11C2466.11 443.5 2459.45 440.833 2454.11 435.5C2448.78 430.167 2446.11 423.5 2446.11 415.5C2446.11 407.833 2448.78 401.5 2454.11 396.5C2459.45 391.167 2466.11 388.5 2474.11 388.5ZM2527.61 326C2536.28 326 2543.28 329 2548.61 335C2554.28 340.667 2557.11 347.833 2557.11 356.5V579C2557.11 583.667 2557.95 587.5 2559.61 590.5C2561.61 593.5 2564.11 595.667 2567.11 597C2570.45 598.333 2573.95 599 2577.61 599C2581.61 599 2585.28 598.333 2588.61 597C2591.95 595.333 2595.78 594.5 2600.11 594.5C2604.78 594.5 2608.95 596.667 2612.61 601C2616.61 605.333 2618.61 611.333 2618.61 619C2618.61 628.333 2613.45 636 2603.11 642C2593.11 648 2582.28 651 2570.61 651C2563.61 651 2555.78 650.5 2547.11 649.5C2538.78 648.167 2530.78 645.333 2523.11 641C2515.78 636.333 2509.61 629.333 2504.61 620C2499.61 610.667 2497.11 597.833 2497.11 581.5V356.5C2497.11 347.833 2499.95 340.667 2505.61 335C2511.61 329 2518.95 326 2527.61 326ZM2670.7 651C2662.04 651 2654.87 648.167 2649.2 642.5C2643.54 636.5 2640.7 629.167 2640.7 620.5V414C2640.7 405.333 2643.54 398.167 2649.2 392.5C2654.87 386.5 2662.04 383.5 2670.7 383.5C2679.37 383.5 2686.54 386.5 2692.2 392.5C2697.87 398.167 2700.7 405.333 2700.7 414V461L2697.2 427.5C2700.87 419.5 2705.54 412.5 2711.2 406.5C2717.2 400.167 2723.87 395 2731.2 391C2738.54 386.667 2746.37 383.5 2754.7 381.5C2763.04 379.5 2771.37 378.5 2779.7 378.5C2789.7 378.5 2798.04 381.333 2804.7 387C2811.7 392.667 2815.2 399.333 2815.2 407C2815.2 418 2812.37 426 2806.7 431C2801.04 435.667 2794.87 438 2788.2 438C2781.87 438 2776.04 436.833 2770.7 434.5C2765.7 432.167 2759.87 431 2753.2 431C2747.2 431 2741.04 432.5 2734.7 435.5C2728.7 438.167 2723.04 442.5 2717.7 448.5C2712.7 454.5 2708.54 462 2705.2 471C2702.2 479.667 2700.7 490 2700.7 502V620.5C2700.7 629.167 2697.87 636.5 2692.2 642.5C2686.54 648.167 2679.37 651 2670.7 651ZM2937.27 656C2908.94 656 2884.27 650.167 2863.27 638.5C2842.6 626.5 2826.6 610.333 2815.27 590C2804.27 569.667 2798.77 546.667 2798.77 521C2798.77 491 2804.77 465.5 2816.77 444.5C2829.1 423.167 2845.1 406.833 2864.77 395.5C2884.44 384.167 2905.27 378.5 2927.27 378.5C2944.27 378.5 2960.27 382 2975.27 389C2990.6 396 3004.1 405.667 3015.77 418C3027.44 430 3036.6 444 3043.27 460C3050.27 476 3053.77 493 3053.77 511C3053.44 519 3050.27 525.5 3044.27 530.5C3038.27 535.5 3031.27 538 3023.27 538H2832.27L2817.27 488H3000.77L2989.77 498V484.5C2989.1 474.833 2985.6 466.167 2979.27 458.5C2973.27 450.833 2965.6 444.833 2956.27 440.5C2947.27 435.833 2937.6 433.5 2927.27 433.5C2917.27 433.5 2907.94 434.833 2899.27 437.5C2890.6 440.167 2883.1 444.667 2876.77 451C2870.44 457.333 2865.44 465.833 2861.77 476.5C2858.1 487.167 2856.27 500.667 2856.27 517C2856.27 535 2859.94 550.333 2867.27 563C2874.94 575.333 2884.6 584.833 2896.27 591.5C2908.27 597.833 2920.94 601 2934.27 601C2946.6 601 2956.44 600 2963.77 598C2971.1 596 2976.94 593.667 2981.27 591C2985.94 588 2990.1 585.5 2993.77 583.5C2999.77 580.5 3005.44 579 3010.77 579C3018.1 579 3024.1 581.5 3028.77 586.5C3033.77 591.5 3036.27 597.333 3036.27 604C3036.27 613 3031.6 621.167 3022.27 628.5C3013.6 635.833 3001.44 642.333 2985.77 648C2970.1 653.333 2953.94 656 2937.27 656Z" fill="#024A71"/>
<path d="M1249.61 1313.84C1233.06 1314.33 1220.17 1309.95 1210.92 1300.7C1201.67 1291.45 1197.05 1279.53 1197.05 1264.93C1197.05 1253.74 1200.46 1244 1207.27 1235.73C1213.6 1226.97 1223.09 1222.35 1235.74 1221.86L1256.91 1220.4C1276.38 1218.94 1290.98 1213.34 1300.71 1203.61C1310.44 1193.88 1315.31 1179.03 1315.31 1159.08V844.45C1315.31 825.957 1320.18 811.843 1329.91 802.11C1339.64 791.89 1353.51 786.78 1371.52 786.78C1390.01 786.78 1404.13 791.89 1413.86 802.11C1423.59 811.843 1428.46 825.957 1428.46 844.45V1157.62C1428.46 1189.74 1422.62 1216.99 1410.94 1239.38C1399.75 1261.28 1382.71 1278.31 1359.84 1290.48C1336.97 1302.65 1308.74 1309.95 1275.16 1312.38L1249.61 1313.84ZM1621.23 1316.03C1594.95 1316.03 1571.35 1310.92 1550.42 1300.7C1529.49 1290.48 1513.19 1276.61 1501.51 1259.09C1489.83 1241.57 1483.99 1221.86 1483.99 1199.96C1483.99 1173.68 1490.8 1153 1504.43 1137.91C1518.06 1122.34 1540.2 1111.39 1570.86 1105.06C1601.52 1098.25 1642.16 1094.84 1692.77 1094.84H1731.46V1151.78H1693.5C1668.68 1151.78 1648.48 1153.24 1632.91 1156.16C1617.82 1158.59 1606.87 1162.97 1600.06 1169.3C1593.73 1175.63 1590.57 1184.39 1590.57 1195.58C1590.57 1209.21 1595.19 1220.4 1604.44 1229.16C1614.17 1237.92 1628.04 1242.3 1646.05 1242.3C1660.16 1242.3 1672.57 1239.14 1683.28 1232.81C1694.47 1226 1703.23 1216.99 1709.56 1205.8C1715.89 1194.12 1719.05 1180.98 1719.05 1166.38V1082.43C1719.05 1061.02 1714.18 1045.93 1704.45 1037.17C1694.72 1027.92 1678.17 1023.3 1654.81 1023.3C1641.67 1023.3 1627.31 1025 1611.74 1028.41C1596.65 1031.33 1579.86 1036.44 1561.37 1043.74C1550.66 1048.61 1541.17 1049.82 1532.9 1047.39C1524.63 1044.47 1518.3 1039.6 1513.92 1032.79C1509.54 1025.49 1507.35 1017.7 1507.35 1009.43C1507.35 1000.67 1509.78 992.397 1514.65 984.61C1519.52 976.337 1527.55 970.253 1538.74 966.36C1561.61 957.113 1583.03 950.787 1602.98 947.38C1623.42 943.973 1642.16 942.27 1659.19 942.27C1696.66 942.27 1727.32 947.867 1751.17 959.06C1775.5 969.767 1793.75 986.557 1805.92 1009.43C1818.09 1031.82 1824.17 1060.77 1824.17 1096.3V1258.36C1824.17 1276.37 1819.79 1290.24 1811.03 1299.97C1802.27 1309.7 1789.62 1314.57 1773.07 1314.57C1756.52 1314.57 1743.63 1309.7 1734.38 1299.97C1725.62 1290.24 1721.24 1276.37 1721.24 1258.36V1231.35L1726.35 1235.73C1723.43 1252.28 1717.1 1266.63 1707.37 1278.8C1698.12 1290.48 1686.2 1299.73 1671.6 1306.54C1657 1312.87 1640.21 1316.03 1621.23 1316.03ZM1704.45 897.74C1698.61 905.527 1691.55 909.907 1683.28 910.88C1675.49 911.853 1667.95 910.393 1660.65 906.5C1653.35 902.607 1648 897.01 1644.59 889.71C1641.67 881.923 1642.4 873.65 1646.78 864.89L1698.61 761.96C1703.48 751.253 1710.05 744.44 1718.32 741.52C1727.08 738.6 1735.84 738.357 1744.6 740.79C1753.85 743.223 1761.63 747.603 1767.96 753.93C1774.77 759.77 1778.91 767.07 1780.37 775.83C1781.83 784.59 1779.15 793.593 1772.34 802.84L1704.45 897.74ZM1937.79 1149.59C1926.6 1149.59 1917.84 1146.18 1911.51 1139.37C1905.18 1132.56 1901.29 1122.58 1899.83 1109.44L1876.47 859.78C1874.04 837.88 1878.17 820.36 1888.88 807.22C1899.59 793.593 1915.89 786.78 1937.79 786.78C1958.72 786.78 1974.53 793.593 1985.24 807.22C1995.95 820.36 2000.08 837.88 1997.65 859.78L1974.29 1109.44C1972.83 1122.58 1968.94 1132.56 1962.61 1139.37C1956.77 1146.18 1948.5 1149.59 1937.79 1149.59ZM1937.79 1311.65C1918.32 1311.65 1902.75 1305.81 1891.07 1294.13C1879.88 1282.45 1874.28 1267.36 1874.28 1248.87C1874.28 1230.86 1879.88 1216.26 1891.07 1205.07C1902.75 1193.39 1918.32 1187.55 1937.79 1187.55C1957.26 1187.55 1972.34 1193.39 1983.05 1205.07C1994.24 1216.26 1999.84 1230.86 1999.84 1248.87C1999.84 1267.36 1994.24 1282.45 1983.05 1294.13C1972.34 1305.81 1957.26 1311.65 1937.79 1311.65Z" fill="#024A71"/>
</g>
<defs>
<clipPath id="clip0_32_1926">
<rect width="3207" height="1536" fill="white"/>
</clipPath>
</defs>
</svg>
